PathFileType	4	(X/Y/Z)	C:\My Captures\DataSMARTClinic\0056~004 ID\0056~aa~STRATO3\Standing_ID_04_STRATO.trc
DataRate	CameraRate	NumFrames	NumMarkers	Units	OrigDataRate	OrigDataStartFrame	OrigNumFrames
250.00	250.00	12	22	mm	250.00	1	2621
Frame#	Time	r.should			l.should			c7			r.asis			l.asis			sacrum			r.bar1			l.bar1			r.knee1			l.knee1			r.bar2			r.mall			l.bar2			l.mall			r.met			r.heel			l.heel			l.met			r.mallm			l.mallm			r.kneem			l.kneem			
		X1	Y1	Z1	X2	Y2	Z2	X3	Y3	Z3	X4	Y4	Z4	X5	Y5	Z5	X6	Y6	Z6	X7	Y7	Z7	X8	Y8	Z8	X9	Y9	Z9	X10	Y10	Z10	X11	Y11	Z11	X12	Y12	Z12	X13	Y13	Z13	X14	Y14	Z14	X15	Y15	Z15	X16	Y16	Z16	X17	Y17	Z17	X18	Y18	Z18	X19	Y19	Z19	X20	Y20	Z20	X21	Y21	Z21	X22	Y22	Z22	

0	0.000000	870.419145	1254.765391	360.817194	853.998184	1258.079767	79.926439	774.209201	1313.575864	220.285416	976.630867	882.669032	345.446259	978.935540	875.244677	106.618717	735.214114	907.873869	211.759716	871.085405	801.710427	428.415328	886.408091	771.132112	27.890952	903.224885	463.461608	411.204487	884.631217	471.860766	80.861799	880.750954	402.014196	418.068051	830.093324	70.894517	438.160717	867.575586	397.926956	80.066599	854.907036	71.895182	92.230789	969.415069	43.336187	433.826327	777.928531	53.619217	390.813500	797.312498	54.569505	123.415999	985.249579	43.777779	114.924319	857.733369	69.450445	361.570418	866.542339	72.545938	169.169903	897.036552	448.227912	263.297826	857.056081	446.723521	223.869368	
1	0.004000	870.155215	1254.781723	361.152291	854.003429	1258.080125	79.909779	774.276614	1313.569546	220.258608	976.655900	882.684469	345.420212	978.896260	875.226200	106.607363	735.183060	907.888651	211.743876	871.097088	801.685572	428.401351	886.375964	771.129370	27.881637	903.224349	463.456005	411.179930	884.625912	471.853286	80.851160	880.767286	402.015269	418.051302	830.089509	70.880651	438.156664	867.538691	397.927523	80.054983	854.900897	71.871482	92.225716	969.405532	43.320991	433.813393	777.967870	53.601962	390.800506	797.365725	54.560326	123.393744	985.255122	43.782357	114.917062	857.765079	69.452122	361.548007	866.545141	72.553463	169.170141	897.041678	448.240340	263.297379	857.033372	446.713984	223.856270	
2	0.008000	870.209336	1254.778624	361.101896	854.011893	1258.076668	79.888977	774.286091	1313.569546	220.256492	976.671457	882.691145	345.400095	978.892684	875.223219	106.585629	735.174656	907.899261	211.738020	871.088684	801.680207	428.394318	886.389434	771.146536	27.868422	903.232455	463.458240	411.166847	884.608388	471.854657	80.839455	880.778432	402.014256	418.039471	830.089808	70.879191	438.149542	867.519617	397.925884	80.043584	854.902685	71.868002	92.215694	969.423056	43.322407	433.812141	777.945995	53.596456	390.782565	797.379136	54.549489	123.382866	985.258341	43.781377	114.914849	857.780159	69.459975	361.552566	866.555929	72.557293	169.160381	897.072673	448.244065	263.289690	857.017398	446.716517	223.843083	
3	0.012000	870.326877	1254.763484	360.974133	854.039431	1258.080959	79.879560	774.314284	1313.576937	220.243275	976.680458	882.686973	345.390677	978.900313	875.231624	106.569380	735.188603	907.903135	211.727306	871.103525	801.690996	428.383380	886.377931	771.134019	27.851548	903.230309	463.459432	411.163390	884.598315	471.859932	80.840200	880.770981	402.014345	418.032616	830.091000	70.885740	438.152701	867.517948	397.926599	80.026716	854.612708	71.919821	92.092641	969.424486	43.328483	433.816642	777.935863	53.602405	390.790701	797.255218	55.419557	124.455735	985.269547	43.793716	114.915431	857.781410	69.465719	361.559927	866.565108	72.547384	169.160098	897.081673	448.255897	263.279557	857.002318	446.723372	223.846540	
4	0.016000	870.211303	1254.803181	361.163795	854.051471	1258.077979	79.874575	774.352789	1313.573360	220.218197	976.679981	882.688284	345.381081	978.895724	875.222564	106.560968	735.191286	907.906651	211.714715	871.109664	801.692247	428.379774	886.358440	771.127760	27.844645	903.233171	463.463694	411.164045	884.576976	471.859664	80.836698	880.777121	402.014345	418.024898	830.101669	70.883669	438.153088	867.505252	397.923052	80.021359	853.965759	72.070837	91.831759	969.431102	43.338016	433.808088	777.944148	53.593364	390.802324	796.957731	57.402864	126.890182	985.269248	43.789722	114.909910	857.782722	69.453940	361.541748	866.575539	72.557539	169.157267	897.077084	448.241830	263.278842	856.992841	446.723461	223.841146	
5	0.020000	870.187104	1254.813313	361.202180	854.047537	1258.072138	79.866901	774.368703	1313.581109	220.215321	976.687372	882.687271	345.379442	978.888035	875.212252	106.539331	735.177875	907.917023	211.704165	871.151328	801.740706	428.379536	886.336923	771.133304	27.846463	903.233290	463.460088	411.161572	884.577572	471.862853	80.820598	880.796671	402.016401	418.021500	830.096960	70.882335	438.144982	867.486537	397.931218	80.028810	854.083478	72.020486	91.881372	969.448507	43.344755	433.804035	777.968884	53.595826	390.802741	797.006130	57.020023	126.420274	985.273182	43.789200	114.907712	857.757926	69.462597	361.542851	866.562724	72.562113	169.149429	897.052169	448.235601	263.273358	856.984019	446.735144	223.835275	
6	0.024000	870.168567	1254.811406	361.213028	854.049325	1258.067012	79.861343	774.408877	1313.575506	220.206201	976.682782	882.677794	345.385641	978.876233	875.202000	106.524184	735.179365	907.921731	211.697325	871.161938	801.739395	428.380579	886.331201	771.131277	27.840238	903.243482	463.454366	411.154777	884.571195	471.865773	80.824032	880.792916	402.023435	418.029428	830.104291	70.888922	438.152820	867.479801	397.932053	80.024056	854.684114	71.899205	92.146575	969.441473	43.346383	433.803022	777.993083	53.593148	390.794426	797.275424	55.177435	124.146514	985.270500	43.792162	114.909708	857.750535	69.462776	361.546040	866.563916	72.560504	169.152439	897.037089	448.240668	263.263255	856.995106	446.737736	223.820806	
7	0.028000	870.173395	1254.814982	361.207098	854.062319	1258.063078	79.853974	774.373770	1313.591480	220.208198	976.679683	882.667184	345.375538	978.867292	875.194907	106.510594	735.167861	907.930851	211.701766	871.144891	801.713705	428.362489	886.334658	771.135449	27.829558	903.246582	463.456452	411.152899	884.562016	471.867830	80.817312	880.786419	402.030110	418.033481	830.098152	70.886917	438.150197	867.452204	397.926450	80.016091	854.838192	71.870536	92.215002	969.430089	43.339316	433.806837	778.003454	53.587779	390.784144	797.359109	54.710031	123.579904	985.265791	43.790266	114.907444	857.741356	69.449715	361.546576	866.546869	72.567292	169.160724	897.060335	448.255897	263.262242	856.989801	446.741581	223.815069	
8	0.032000	870.179653	1254.806519	361.200809	854.060292	1258.067131	79.853065	774.397612	1313.591123	220.200598	976.678371	882.661283	345.371008	978.832483	875.170588	106.494159	735.131979	907.944679	211.712807	871.126890	801.702678	428.331465	886.334479	771.134496	27.810207	903.242826	463.457972	411.147386	884.541154	471.857667	80.805779	880.781412	402.027339	418.033302	830.103755	70.889905	438.149273	867.447853	397.931755	80.008738	854.885936	71.880944	92.226163	969.439805	43.344464	433.802664	777.993798	53.596508	390.791595	797.384024	54.577883	123.435929	985.263765	43.782853	114.908665	857.745886	69.460317	361.555606	866.539776	72.560728	169.162497	897.053421	448.252857	263.264835	856.983066	446.743965	223.812997	
9	0.036000	870.173752	1254.792333	361.199915	854.054093	1258.065104	79.850346	774.385870	1313.602567	220.195368	976.664841	882.648110	345.363438	978.841841	875.172496	106.479973	735.114336	907.955348	211.704388	871.110916	801.695108	428.321570	886.320651	771.130562	27.800474	903.235912	463.455141	411.152482	884.516776	471.854985	80.804951	880.780458	402.014375	418.034375	830.101252	70.883133	438.151091	867.451787	397.928089	80.009043	854.872465	71.871668	92.222460	969.434500	43.338388	433.806956	777.968347	53.613007	390.795261	797.378778	54.548033	123.389706	985.254288	43.777607	114.913955	857.764482	69.476448	361.539721	866.548061	72.560564	169.162571	897.028446	448.244929	263.271332	856.953740	446.739763	223.811582	
10	0.040000	870.182872	1254.796863	361.201227	854.055107	1258.055687	79.845466	774.376333	1313.607454	220.200613	976.659179	882.632792	345.359743	978.829980	875.165045	106.481463	735.120893	907.953024	211.693808	871.128798	801.693916	428.321272	886.305928	771.129966	27.808927	903.230786	463.449299	411.155999	884.507537	471.855551	80.799162	880.771637	402.011782	418.035448	830.088854	70.872650	438.151628	867.430627	397.916883	80.007978	854.819059	71.868204	92.229344	969.427943	43.323670	433.816105	777.954459	53.620350	390.809357	797.390163	54.532938	123.379186	985.261440	43.777071	114.918426	857.766628	69.464199	361.522675	866.545200	72.556481	169.166669	897.020102	448.229223	263.269305	856.931210	446.745694	223.811626	
11	0.044000	870.223045	1254.815102	361.191630	854.062915	1258.048296	79.836532	774.400175	1313.600421	220.198601	976.656914	882.626772	345.350862	978.845835	875.177026	106.471345	735.123873	907.950282	211.690724	871.125400	801.708341	428.332984	886.284113	771.130204	27.803777	903.227210	463.451207	411.155164	884.509861	471.852958	80.791399	880.783379	402.011871	418.033659	830.091655	70.869751	438.153625	867.424488	397.918314	80.006354	854.583561	71.917467	92.134833	969.426274	43.321084	433.818787	777.960598	53.613734	390.820563	797.239065	55.403985	124.467790	985.265553	43.782048	114.914864	857.770920	69.457553	361.545503	866.538167	72.548144	169.173151	897.032917	448.226988	263.259351	856.928289	446.748495	223.808274	
